<svg t="1654326188657" class="icon" viewBox="0 0 1024 1024" version="1.1" xmlns="http://www.w3.org/2000/svg" p-id="2172" width="200" height="200"><path d="M928.426667 786.773333l-56.32 56.32c-32.426667 32.426667-83.626667 32.426667-116.053334 0L168.96 256C136.533333 223.573333 136.533333 172.373333 168.96 139.946667l56.32-56.32C257.706667 51.2 308.906667 51.2 341.333333 83.626667l587.093334 587.093333c30.72 30.72 30.72 83.626667 0 116.053333z" fill="#1296db" opacity=".3" p-id="2173"></path><path d="M814.08 892.586667c-27.306667 0-54.613333-10.24-76.8-30.72L150.186667 274.773333C129.706667 254.293333 119.466667 226.986667 119.466667 197.973333s11.946667-56.32 30.72-76.8l56.32-56.32c42.666667-42.666667 110.933333-42.666667 151.893333 0l587.093333 587.093334c20.48 20.48 30.72 47.786667 30.72 76.8s-11.946667 56.32-30.72 76.8l-56.32 56.32c-20.48 20.48-47.786667 30.72-75.093333 30.72zM283.306667 85.333333c-13.653333 0-29.013333 5.12-39.253334 17.066667L187.733333 158.72c-10.24 10.24-17.066667 23.893333-17.066666 39.253333 0 15.36 5.12 29.013333 17.066666 39.253334l587.093334 587.093333c22.186667 22.186667 58.026667 22.186667 80.213333 0l56.32-56.32c10.24-10.24 17.066667-23.893333 17.066667-39.253333 0-15.36-5.12-29.013333-17.066667-39.253334L322.56 102.4c-10.24-11.946667-23.893333-17.066667-39.253333-17.066667z m645.12 701.44z" fill="#1296db" opacity=".3" p-id="2174"></path><path d="M368.64 896L133.12 658.773333 718.506667 73.386667c46.08-46.08 122.88-46.08 168.96 0l66.56 66.56c46.08 46.08 46.08 122.88 0 168.96L368.64 896zM204.8 658.773333l163.84 163.84L918.186667 273.066667c27.306667-27.306667 27.306667-69.973333 0-97.28l-66.56-66.56c-27.306667-27.306667-69.973333-27.306667-97.28 0L204.8 658.773333z" fill="#1296db" p-id="2175"></path><path d="M59.733333 989.866667c-10.24 0-20.48-6.826667-23.893333-17.066667-1.706667-3.413333-1.706667-8.533333-1.706667-11.946667 0-3.413333 0-6.826667 1.706667-11.946666l98.986667-293.546667c3.413333-8.533333 10.24-15.36 18.773333-17.066667 8.533333-1.706667 17.066667 0 23.893333 6.826667l209.92 197.973333c6.826667 6.826667 8.533333 15.36 6.826667 23.893334-1.706667 8.533333-8.533333 15.36-17.066667 18.773333L68.266667 988.16c-3.413333 1.706667-5.12 1.706667-8.533334 1.706667zM170.666667 711.68L98.986667 925.013333l221.866666-71.68-150.186666-141.653333zM890.88 356.693333c-6.826667 0-13.653333-1.706667-18.773333-6.826666L680.96 155.306667c-5.12-5.12-6.826667-11.946667-6.826667-18.773334s1.706667-13.653333 6.826667-18.773333c10.24-10.24 25.6-10.24 35.84 0l192.853333 192.853333c5.12 5.12 6.826667 11.946667 6.826667 18.773334s-1.706667 13.653333-6.826667 18.773333c-5.12 5.12-11.946667 8.533333-18.773333 8.533333z" fill="#1296db" p-id="2176"></path><path d="M795.306667 977.92c-27.306667 0-54.613333-10.24-76.8-30.72L97.28 324.266667c-42.666667-42.666667-42.666667-110.933333 0-151.893334l64.853333-64.853333c20.48-20.48 47.786667-30.72 76.8-30.72s56.32 11.946667 76.8 30.72l621.226667 621.226667c20.48 20.48 30.72 47.786667 30.72 76.8s-11.946667 56.32-30.72 76.8l-64.853333 64.853333c-22.186667 18.773333-49.493333 30.72-76.8 30.72zM238.933333 126.293333c-15.36 0-29.013333 5.12-39.253333 17.066667l-64.853333 64.853333a56.661333 56.661333 0 0 0 0 80.213334l621.226666 621.226666c22.186667 22.186667 58.026667 22.186667 80.213334 0l64.853333-64.853333c10.24-10.24 17.066667-23.893333 17.066667-39.253333 0-15.36-5.12-29.013333-17.066667-39.253334L279.893333 143.36c-11.946667-11.946667-25.6-17.066667-40.96-17.066667z" fill="#1296db" p-id="2177"></path><path d="M257.706667 452.266667c-6.826667 0-13.653333-1.706667-18.773334-6.826667-5.12-5.12-6.826667-11.946667-6.826666-18.773333 0-6.826667 1.706667-13.653333 6.826666-18.773334l47.786667-47.786666c10.24-10.24 25.6-10.24 35.84 0 5.12 5.12 6.826667 11.946667 6.826667 18.773333 0 6.826667-1.706667 13.653333-6.826667 18.773333l-47.786667 47.786667c-3.413333 5.12-10.24 6.826667-17.066666 6.826667zM609.28 807.253333c-6.826667 0-13.653333-1.706667-18.773333-6.826666-5.12-5.12-6.826667-11.946667-6.826667-18.773334 0-6.826667 1.706667-13.653333 6.826667-18.773333l47.786666-47.786667c10.24-10.24 25.6-10.24 35.84 0 5.12 5.12 6.826667 11.946667 6.826667 18.773334 0 6.826667-1.706667 13.653333-6.826667 18.773333l-47.786666 47.786667c-3.413333 3.413333-10.24 6.826667-17.066667 6.826666z" fill="#1296db" p-id="2178"></path></svg>
